<svg width="24" height="24" viewBox="0 0 24 24" fill="none" xmlns="http://www.w3.org/2000/svg">
    <g clip-path="url(#na17jrevba)">
        <path fill-rule="evenodd" clip-rule="evenodd" d="M18.25 3v11.315H5.75V3H4v13.114h7V21h2v-4.886h7V3h-1.75zm-4.598 5.35-.713-.713-.395.392.713.712-.574.574-.712-.71-.395.392.712.713-.573.573-.713-.71-.68.68-.573-.576.677-.68-.713-.712.577-.574.712.713.392-.395-.709-.713.573-.573.713.713.395-.395-.713-.713.574-.573.712.712.68-.68.574.573-.68.68.712.713-.573.576zm2.85-4.803-.049-.049c-.47-.395-1.162-.537-2.212-.489a7.624 7.624 0 0 0-5.056 2.186 7.619 7.619 0 0 0-2.176 5.043c-.032.767 0 1.632.489 2.215l.052.048c.408.344.972.499 1.823.499.127 0 .253-.003.389-.01a7.622 7.622 0 0 0 5.053-2.186 7.619 7.619 0 0 0 2.176-5.042c.032-.768 0-1.632-.489-2.215z" fill="#1DA86D"/>
    </g>
    <defs>
        <clipPath id="na17jrevba">
            <path fill="#fff" transform="translate(4 3)" d="M0 0h16v18H0z"/>
        </clipPath>
    </defs>
</svg>
