<svg width="24" height="24" viewBox="0 0 24 24" fill="none" xmlns="http://www.w3.org/2000/svg">
    <path d="M8.001 9.665c-.01-.1.035-.15.135-.15h1.635c.1 0 .155.05.165.15.07.47.28.84.63 1.11.36.26.87.39 1.53.39.7 0 1.215-.14 1.545-.42.34-.29.51-.665.51-1.125 0-.25-.06-.485-.18-.705-.11-.22-.3-.395-.57-.525-.27-.13-.63-.195-1.08-.195h-1.425c-.1 0-.15-.05-.15-.15v-1.44c0-.1.05-.15.15-.15h1.41c.53 0 .905-.13 1.125-.39.22-.27.33-.585.33-.945 0-.39-.145-.705-.435-.945-.29-.25-.705-.375-1.245-.375-.58 0-1.035.125-1.365.375-.33.24-.53.575-.6 1.005-.02.1-.075.15-.165.15H8.316c-.1 0-.145-.05-.135-.15.14-.99.55-1.765 1.23-2.325.68-.57 1.58-.855 2.7-.855.68 0 1.29.11 1.83.33.55.22.98.545 1.29.975.32.42.48.945.48 1.575 0 .57-.135 1.08-.405 1.53-.183.31-.492.582-.928.818.318.131.583.283.793.457.34.27.575.585.705.945.14.36.21.75.21 1.17 0 .68-.175 1.255-.525 1.725-.34.47-.81.83-1.41 1.08-.59.24-1.265.36-2.025.36-1.19 0-2.145-.29-2.865-.87-.71-.59-1.13-1.4-1.26-2.43z" fill="#1DA86D"/>
    <path d="M18.25 14.315V3H20v13.114h-7V21h-2v-4.886H4V3h1.75v11.315h12.5z" fill="#1DA86D"/>
</svg>
