<svg width="24" height="24" viewBox="0 0 24 24" fill="none" xmlns="http://www.w3.org/2000/svg">
    <path d="M8.536 5.6c-.1 0-.145-.05-.135-.15.12-1.08.515-1.925 1.185-2.535.68-.61 1.615-.915 2.805-.915.71 0 1.34.125 1.89.375.56.25.995.615 1.305 1.095.32.48.48 1.06.48 1.74 0 .72-.15 1.32-.45 1.8-.3.47-.725.845-1.275 1.125-.54.28-1.17.485-1.89.615-.45.09-.825.19-1.125.3-.3.11-.525.275-.675.495-.14.22-.21.545-.21.975v.495h5.565c.1 0 .15.05.15.15v1.5c0 .1-.05.15-.15.15H8.611c-.1 0-.15-.05-.15-.15V10.73c0-.8.15-1.445.45-1.935.3-.5.735-.885 1.305-1.155.58-.28 1.29-.485 2.13-.615.6-.09 1.035-.295 1.305-.615.28-.32.42-.705.42-1.155 0-.42-.15-.765-.45-1.035-.29-.28-.715-.42-1.275-.42-.62 0-1.095.145-1.425.435-.33.29-.53.695-.6 1.215-.01.1-.065.15-.165.15h-1.62z" fill="#1DA86D"/>
    <path d="M18.25 14.315V3H20v13.114h-7V21h-2v-4.886H4V3h1.75v11.315h12.5z" fill="#1DA86D"/>
</svg>
