<svg width="24" height="24" viewBox="0 0 24 24" fill="none" xmlns="http://www.w3.org/2000/svg">
    <path fill-rule="evenodd" clip-rule="evenodd" d="m17.28 15.467-1.004-1-.557.55 1.005 1-.808.806-1.005-.996-.557.55 1.005 1-.808.806-1.005-.996-.958.955-.808-.81.954-.955-1.005-1 .813-.806 1.004 1 .553-.554-1-1.001.808-.805 1.004 1 .557-.554-1.004-1.001.808-.806 1.004 1.001.959-.955.808.805-.959.956 1.005 1-.808.81zm4.018-6.746-.068-.068c-.662-.556-1.64-.756-3.119-.688a10.764 10.764 0 0 0-7.126 3.071c-1.89 1.943-2.949 4.39-3.067 7.083-.046 1.079 0 2.293.689 3.112l.073.068c.575.483 1.37.701 2.57.701.178 0 .356-.005.548-.014 2.703-.118 5.163-1.173 7.122-3.07 1.89-1.943 2.949-4.39 3.067-7.084.046-1.078 0-2.293-.689-3.111zM15.526 2l1.246 1.242-13.526 13.48L2 15.481 15.526 2z" fill="#1DA86D"/>
</svg>
