<svg width="24" height="24" viewBox="0 0 24 24" fill="none" xmlns="http://www.w3.org/2000/svg">
    <path fill-rule="evenodd" clip-rule="evenodd" d="m15.304 12.699-1.425-1.425-.79.784 1.424 1.425-1.146 1.146-1.425-1.418-.79.783 1.425 1.425-1.147 1.147-1.425-1.419-1.36 1.36-1.147-1.153 1.354-1.36-1.425-1.425 1.153-1.146 1.425 1.425.784-.79-1.419-1.425 1.147-1.147 1.425 1.425.79-.79-1.425-1.425 1.146-1.146 1.426 1.425 1.36-1.36 1.146 1.146-1.36 1.36 1.425 1.425-1.146 1.153zm5.7-9.606-.097-.096c-.94-.79-2.326-1.076-4.424-.979C12.64 2.188 9.15 3.69 6.37 6.39c-2.682 2.766-4.185 6.25-4.353 10.085-.065 1.535 0 3.264.978 4.43l.104.098c.816.686 1.943.997 3.647.997.252 0 .505-.006.777-.02 3.835-.168 7.326-1.67 10.105-4.371 2.682-2.766 4.185-6.25 4.353-10.085.065-1.535 0-3.265-.978-4.43z" fill="#1DA86D"/>
</svg>
