<svg width="24" height="24" viewBox="0 0 24 24" fill="none" xmlns="http://www.w3.org/2000/svg">
    <path fill-rule="evenodd" clip-rule="evenodd" d="M18.138 8.013c1.469-.068 2.44.131 3.097.685l.068.067c.684.817.73 2.027.684 3.102-.117 2.684-1.17 5.123-3.047 7.059-1.945 1.89-4.389 2.943-7.073 3.06-.19.01-.368.014-.544.014-1.193 0-1.982-.218-2.553-.698l-.073-.068c-.684-.816-.73-2.027-.684-3.102.117-2.684 1.17-5.123 3.047-7.059 1.945-1.89 4.389-2.942 7.078-3.06zm-2.82 3.872-.803.802.997.998-.553.553-.997-.998-.803.803.993.997-.549.554-.997-.998-.807.803.997.997-.947.952.802.807.952-.952.998.993.803-.803-.998-.997.553-.549.998.993.802-.802-.997-.998.553-.548.997.997.803-.807-.997-.997.952-.952-.803-.803-.952.952-.998-.997zM5.448 2c.522 0 .985.064 1.387.193s.74.313 1.012.552c.273.24.48.533.62.88a3.1 3.1 0 0 1 .212 1.173c0 .33-.053.648-.157.955a4.486 4.486 0 0 1-.444.922c-.19.307-.42.617-.69.931-.271.314-.572.64-.904.98L4.733 10.42H9V12H2.198v-1.341l3.21-3.402c.24-.261.444-.5.61-.718.166-.216.3-.415.402-.596.102-.18.175-.349.218-.505.044-.156.065-.306.065-.45 0-.438-.111-.783-.334-1.033-.222-.251-.54-.377-.954-.377-.232 0-.437.042-.617.126-.18.083-.33.198-.45.345-.12.147-.212.322-.276.525a2.204 2.204 0 0 0-.095.664H2c0-.442.08-.86.239-1.253a3 3 0 0 1 .688-1.03 3.29 3.29 0 0 1 1.087-.698A3.795 3.795 0 0 1 5.45 2z" fill="#1DA86D"/>
</svg>
