<svg width="1366" height="1366" viewBox="0 0 1366 1366" fill="none" xmlns="http://www.w3.org/2000/svg">
<path d="M682.666 478.906C795.199 478.906 886.412 570.132 886.425 682.666C886.425 795.199 795.199 886.412 682.666 886.425C570.132 886.425 478.919 795.199 478.906 682.666C478.906 570.132 570.132 478.906 682.666 478.906ZM682.666 546.826C607.639 546.826 546.826 607.639 546.826 682.666C546.826 757.692 607.639 818.505 682.666 818.505C757.692 818.505 818.505 757.692 818.505 682.666C818.505 607.639 757.692 546.826 682.666 546.826ZM1074.88 290.453C1178.89 394.479 1237.33 535.559 1237.33 682.666C1237.33 829.772 1178.89 970.852 1074.88 1074.88C970.852 1178.89 829.772 1237.33 682.666 1237.33C535.559 1237.33 394.479 1178.89 290.453 1074.88C186.44 970.852 128 829.772 128 682.666C128 535.559 186.44 394.479 290.453 290.453C394.479 186.44 535.559 128 682.666 128C829.772 128 970.852 186.44 1074.88 290.453ZM442.693 682.666H184.6C184.6 814.759 237.08 941.452 330.479 1034.85C423.879 1128.25 550.572 1180.73 682.666 1180.73C814.759 1180.73 941.452 1128.25 1034.85 1034.85C1128.25 941.452 1180.73 814.759 1180.73 682.666H922.638C922.638 550.132 815.199 442.693 682.666 442.693C550.132 442.693 442.693 550.132 442.693 682.666Z" fill="white"/>
</svg>
