<svg width="24" height="24" viewBox="0 0 24 24" fill="none" xmlns="http://www.w3.org/2000/svg">
    <path d="M7.182 15.02c-.134 0-.194.067-.18.2.173 1.373.733 2.453 1.68 3.24.96.773 2.233 1.16 3.82 1.16 1.013 0 1.913-.16 2.7-.48.8-.333 1.426-.813 1.88-1.44.466-.627.7-1.393.7-2.3 0-.56-.093-1.08-.28-1.56-.174-.48-.487-.9-.94-1.26-.454-.373-1.094-.673-1.92-.9l.04.66c1.027-.387 1.713-.873 2.06-1.46.36-.6.54-1.28.54-2.04 0-.84-.213-1.54-.64-2.1-.413-.573-.987-1.007-1.72-1.3-.72-.293-1.534-.44-2.44-.44-1.493 0-2.694.38-3.6 1.14-.907.747-1.454 1.78-1.64 3.1-.014.133.046.2.18.2h2.18c.12 0 .193-.067.22-.2.093-.573.36-1.02.8-1.34.44-.333 1.046-.5 1.82-.5.72 0 1.273.167 1.66.5.386.32.58.74.58 1.26 0 .48-.147.9-.44 1.26-.294.347-.794.52-1.5.52h-1.88c-.133 0-.2.067-.2.2v1.92c0 .133.066.2.2.2h1.9c.6 0 1.08.087 1.44.26.36.173.613.407.76.7.16.293.24.607.24.94 0 .613-.227 1.113-.68 1.5-.44.373-1.127.56-2.06.56-.88 0-1.56-.173-2.04-.52-.467-.36-.747-.853-.84-1.48-.014-.133-.087-.2-.22-.2h-2.18z" fill="#1DA86D"/>
</svg>
