<svg width="24" height="24" viewBox="0 0 24 24" fill="none" xmlns="http://www.w3.org/2000/svg">
    <path d="M7.002 9.6c-.014.133.046.2.18.2h2.16c.133 0 .206-.067.22-.2.093-.693.36-1.233.8-1.62.44-.387 1.073-.58 1.9-.58.746 0 1.313.187 1.7.56.4.36.6.82.6 1.38 0 .6-.187 1.113-.56 1.54-.36.427-.94.7-1.74.82-1.12.173-2.067.447-2.84.82-.76.36-1.34.873-1.74 1.54-.4.653-.6 1.513-.6 2.58v2.58c0 .133.066.2.2.2h9.86c.133 0 .2-.067.2-.2v-2c0-.133-.067-.2-.2-.2h-8.02l.6.6v-1.26c0-.573.093-1.007.28-1.3.2-.293.5-.513.9-.66.4-.147.9-.28 1.5-.4.96-.173 1.8-.447 2.52-.82.733-.373 1.3-.873 1.7-1.5.4-.64.6-1.44.6-2.4 0-.907-.213-1.68-.64-2.32-.413-.64-.994-1.127-1.74-1.46-.734-.333-1.574-.5-2.52-.5-1.587 0-2.834.407-3.74 1.22-.894.813-1.42 1.94-1.58 3.38z" fill="#1DA86D"/>
</svg>
