<svg width="24" height="24" viewBox="0 0 24 24" fill="none" xmlns="http://www.w3.org/2000/svg">
    <path fill-rule="evenodd" clip-rule="evenodd" d="M15 3a1 1 0 0 1 1 1v1.223a8.95 8.95 0 0 1 4.367 2.411c3.51 3.51 3.51 9.223 0 12.734-3.51 3.51-9.223 3.509-12.734 0-3.51-3.51-3.51-9.224 0-12.734A8.95 8.95 0 0 1 12 5.224V5H6v3L0 4l6-4v3h9zM8.52 8.522c-2.436 2.437-2.905 6.104-1.413 9.017l1.52-.632 2.465 2.466-.632 1.518c2.912 1.494 6.581 1.023 9.019-1.412 2.44-2.44 2.908-6.116 1.405-9.03l-1.507.625-2.465-2.467.624-1.499c-2.914-1.492-6.58-1.022-9.016 1.414zm9.65 5.413 1.169 2.967-2.437 2.436-2.934-1.135.752-3.481 3.45-.787zM10.959 8.7l2.894 1.223-.615 3.318-3.328.603-1.212-2.883 2.261-2.26z" fill="#EA4545"/>
</svg>
