<svg width="24" height="24" viewBox="0 0 24 24" fill="none" xmlns="http://www.w3.org/2000/svg">
    <path fill-rule="evenodd" clip-rule="evenodd" d="M4 3H2v9h2V5h16v7h2V3H4zm12.2 8.886c-2.316-2.312-6.085-2.312-8.4 0a5.922 5.922 0 0 0 0 8.381c2.315 2.31 6.083 2.31 8.4 0a5.926 5.926 0 0 0 0-8.38zm-7.812.585a5.126 5.126 0 0 1 5.945-.931l-.412.99 1.625 1.62.995-.41a5.099 5.099 0 0 1-.927 5.943 5.128 5.128 0 0 1-5.95.93l.418-1-1.626-1.622-1.001.414a5.097 5.097 0 0 1 .933-5.934zm7.134 5.517-.77-1.954-2.277.518-.496 2.291 1.936.749 1.607-1.604zm-3.619-4.597-1.908-.804-1.491 1.489.8 1.897 2.195-.398.404-2.184z" fill="#1DA86D"/>
</svg>
